<svg width="88" height="88" viewBox="0 0 88 88" fill="none" xmlns="http://www.w3.org/2000/svg">
<path d="M44 0C19.7155 0 0 19.7155 0 44C0 68.2845 19.7155 88 44 88C68.2405 88 87.9217 68.3549 87.993 44.1302C87.9975 44.087 87.9998 44.0435 88 44C88 43.9609 87.9982 43.9219 87.9947 43.883C87.9314 19.6522 68.2458 0 44 0ZM44 2.64C46.4429 2.64 48.8312 2.86352 51.157 3.2692C51.7185 4.49768 54.7677 4.76168 51.5354 4.54608C50.2894 6.32368 45.3587 2.67784 42.0754 4.58744C41.0907 5.97432 34.8594 7.4668 37.2002 9.71608C40.5328 9.11152 36.8333 9.65712 36.9327 11.3115C35.229 11.9011 32.809 14.7171 32.8434 11.8351C32.421 9.72488 34.7459 7.78096 30.9822 9.36232C30.7754 10.5116 25.109 12.7239 27.9435 13.2326C30.9241 11.7366 26.7529 15.6068 30.2227 14.08C27.8546 15.1536 29.6507 16.3249 28.5639 18.6912C24.7333 16.9004 22.968 20.2946 22.1663 23.5488C23.0745 23.6342 23.3825 24.1085 23.2945 24.6752C23.7538 24.7201 24.4033 24.7834 24.6963 24.8098C26.6174 24.6629 28.3862 23.4036 29.3031 21.5688C31.4882 19.903 33.2763 18.9464 35.9234 19.0714C34.6535 18.8558 32.9595 24.4235 35.5335 22.3159C34.4265 17.5947 40.4439 22.7718 39.1257 22.8008C36.9142 23.1282 36.2041 23.6949 38.1084 25.2912C39.4346 26.3006 40.2494 21.4262 41.8704 22.2754C41.6548 21.347 37.8638 18.3594 38.4243 18.5161C38.5537 18.5522 38.9145 18.7572 39.6053 19.1919C42.7258 20.174 42.2145 24.1991 45.0481 25.6142C47.0193 28.1776 50.0694 24.1278 52.2245 25.3563C52.2984 27.0477 54.2062 26.8761 54.1323 25.0642C56.2839 26.7115 53.9035 30.7727 50.9159 29.1482C48.0788 30.7833 44.0229 25.2648 42.3051 29.451C41.5395 31.4257 38.918 27.9224 37.833 27.8476C34.0446 28.2674 37.6816 24.1446 35.0574 23.7028C31.6756 23.6738 28.1961 25.0932 24.9392 24.882C23.1678 25.4267 22.0563 26.1536 20.9977 26.8074C19.9813 28.3246 17.9837 29.407 15.9289 32.311C15.5522 32.8918 14.8975 33.6116 14.1178 34.4846C13.0513 38.1128 11.7445 41.7446 11.9504 45.5198C14.2762 47.9732 14.8218 53.8991 19.3908 53.4292C22.4092 54.9886 24.6954 52.2958 27.5255 53.2004C28.0474 56.1405 33.5667 54.9164 32.0786 57.86C30.5254 61.3765 35.0645 63.0722 35.8063 66.2728C37.7441 69.4725 32.883 72.8077 36.7866 75.5612C38.9479 79.1428 41.4524 84.5838 46.625 82.4674C50.6493 82.2096 53.1106 78.8154 55.6239 76.5002C55.396 72.2533 63.0678 72.7162 61.351 67.3165C60.339 66.6794 61.4143 64.1265 60.8582 63.2227C61.4337 62.0391 63.4612 58.6678 65.4227 57.0178C68.4297 54.6858 69.6907 51.0374 70.6834 47.5077C70.0691 44.5394 68.6682 47.4443 66.8835 47.3185C62.135 49.0794 66.9953 45.2769 68.7826 44.1945C71.3046 42.7082 73.7581 40.1729 74.3134 37.4713C76.6506 34.9457 68.6699 32.4922 73.6842 33.3177C76.8548 32.699 78.481 32.3224 79.2924 35.3584C82.3988 36.5869 82.1515 42.2162 83.901 45.2822C84.8074 44.1646 84.4448 45.0331 84.8302 46.3769C85.8422 43.4755 83.71 38.8001 84.3726 35.0284C85.0267 37.9742 85.3578 40.9825 85.36 44C85.36 66.858 66.858 85.36 44 85.36C21.142 85.36 2.64 66.858 2.64 44C2.64 26.2293 13.8248 11.0968 29.5416 5.23864C31.0675 4.80216 32.5952 4.37008 34.0894 3.8412C37.3326 3.04341 40.6602 2.64009 44 2.64ZM53.0578 3.64584C53.497 3.74264 53.9378 3.83768 54.3708 3.94944C54.2705 4.61384 53.7126 4.202 53.0578 3.64584ZM30.9478 5.47272C29.9376 5.4912 28.7857 5.86608 29.0849 6.8024C29.6393 7.00656 30.2157 6.8552 30.7586 6.72232C33.3124 6.01128 32.2467 5.44808 30.9478 5.47272ZM43.3673 8.77976C44.7119 8.58176 43.4421 12.4608 41.36 11.4602C37.9474 11.8131 41.8739 11.2446 41.998 9.67824C42.6087 9.08864 43.0575 8.82464 43.3673 8.77976ZM62.2785 16.4604C62.5337 16.4912 62.6111 16.8018 62.2582 17.5419C61.9705 18.4906 66.5966 21.5626 66.3098 23.5198C62.2019 24.5978 64.7698 20.5929 62.0946 19.778C59.158 18.8056 61.5138 16.3698 62.2794 16.4604H62.2785ZM50.3642 17.2286C51.8901 19.2729 54.2714 17.6695 56.4951 19.3292C59.2161 22.0748 52.206 18.9684 50.9881 20.5515C47.3528 21.67 49.1374 18.3427 50.3642 17.2286ZM14.8157 29.7035C14.557 29.6648 14.3449 29.8443 14.1574 30.5747C14.7822 30.6073 15.2486 30.6777 15.5839 30.7842L15.7881 30.1523C15.3982 30.0115 15.0814 29.7431 14.8157 29.7035ZM66.1892 30.1506C66.7876 32.2265 71.4384 31.8974 70.312 33.8422L69.7814 34.217C68.8732 33.623 65.0954 31.1194 66.1892 30.1506ZM55.1566 32.8152C57.3021 34.2786 58.8394 37.2768 60.2114 39.6264C62.0963 40.9675 62.1562 43.1226 63.3794 44.8175C62.8795 45.4511 61.9027 44.2957 61.703 43.8847C60.0688 42.7416 58.7198 39.8367 57.5643 37.5162C56.8383 35.9075 55.0669 34.4406 55.1566 32.8152ZM67.9923 67.0507C67.797 67.0375 67.4995 67.2663 67.0798 67.8418C64.0499 70.0744 61.6449 72.7311 61.4654 76.5626C63.5642 77.5166 65.3426 73.6718 66.4708 72.3298C67.7635 71.7042 68.8371 67.1079 67.9923 67.0507Z" fill="white"/>
</svg>
